<svg width="52" height="58" viewBox="0 0 52 58" fill="none" xmlns="http://www.w3.org/2000/svg">
<g filter="url(#filter0_d_5103_5)">
<path d="M46.5337 0.987847L39.6325 0.0103999C39.4284 -0.0286979 39.2242 0.049493 39.1425 0.127689L36.2024 3.80289C35.9982 4.03747 35.9574 4.35026 36.039 4.62394C36.1207 4.89763 35.8757 5.13222 35.5899 5.09312L33.1806 4.58484C32.8131 4.50665 32.4047 4.62395 32.1597 4.93673L22.6043 16.6661C22.441 16.9007 22.1143 16.9789 21.8284 16.8616L18.1941 15.2977C17.8674 15.1413 17.4999 15.1804 17.2141 15.3759L15.3765 16.5879C15.0907 16.7834 14.6823 16.8225 14.3556 16.6661L13.4573 16.236C12.8856 15.9623 12.1914 16.2751 12.028 16.8616L11.3747 19.6375C11.2113 20.3022 11.4972 20.9669 12.1097 21.3187L13.4981 22.1398L17.9491 24.7593L20.1134 26.0496C20.7259 26.4015 21.5018 26.3233 22.0326 25.8932L25.6669 22.8436C25.9528 22.609 26.402 22.5308 26.7287 22.7263L27.8312 23.2736C28.1987 23.4691 28.6479 23.3909 28.9337 23.1172L30.7713 21.4751C31.0572 21.2014 31.5064 21.1623 31.833 21.3187L34.569 22.5308C34.9773 22.7263 35.4674 22.609 35.7532 22.2571L37.0191 20.6932L46.6153 8.92471C47.0645 8.37734 46.7787 7.55629 46.0436 7.3999L43.9202 6.93072C43.471 6.85252 43.2669 6.30515 43.5935 5.99237L46.9012 2.04348C47.2279 1.57431 47.0237 1.06604 46.5337 0.987847Z" fill="#8257E5"/>
<path d="M14.449 24.6112C14.2295 24.4956 14.0099 24.6883 14.0977 24.8811L15.1956 27.4257C15.2834 27.6184 15.2834 27.8112 15.2395 28.004L14.2734 31.3196C14.2295 31.5509 14.3173 31.7823 14.4929 31.8979L17.2596 33.7871C17.5231 33.9413 17.8744 33.9413 18.094 33.7485L20.9924 31.5124C21.168 31.3967 21.3876 31.3196 21.5633 31.2811L24.8569 30.9726C25.0765 30.9341 25.1643 30.6642 24.9447 30.5485L14.449 24.6112Z" fill="#8257E5"/>
<path d="M13.7917 33.1659C13.6255 33.0524 13.376 33.0146 13.1682 33.0902L10.9649 34.0733C10.8402 34.1111 10.7571 34.2245 10.6739 34.3379L5.97648 44.8867C5.97648 44.9245 5.97648 44.9245 5.97648 44.9623C6.01805 45.0001 6.05962 45.0379 6.14276 45.0379L7.2236 44.6598C7.26517 44.6598 7.30673 44.6598 7.3483 44.6598C7.38987 44.6976 7.43145 44.7732 7.38987 44.8111L4.02266 49.8397C3.93952 49.9531 4.1058 50.0665 4.18895 49.9531L16.3691 38.8372C16.4938 38.7238 16.5354 38.6104 16.577 38.4591L16.8264 35.5856C16.8264 35.3966 16.7432 35.2453 16.6185 35.1319L13.7917 33.1659Z" fill="#8257E5"/>
</g>
<defs>
<filter id="filter0_d_5103_5" x="0" y="0" width="51.0601" height="58" filterUnits="userSpaceOnUse" color-interpolation-filters="sRGB">
<feFlood flood-opacity="0" result="BackgroundImageFix"/>
<feColorMatrix in="SourceAlpha" type="matrix" values="0 0 0 0 0 0 0 0 0 0 0 0 0 0 0 0 0 0 127 0" result="hardAlpha"/>
<feOffset dy="4"/>
<feGaussianBlur stdDeviation="2"/>
<feComposite in2="hardAlpha" operator="out"/>
<feColorMatrix type="matrix" values="0 0 0 0 0 0 0 0 0 0 0 0 0 0 0 0 0 0 0.25 0"/>
<feBlend mode="normal" in2="BackgroundImageFix" result="effect1_dropShadow_5103_5"/>
<feBlend mode="normal" in="SourceGraphic" in2="effect1_dropShadow_5103_5" result="shape"/>
</filter>
</defs>
</svg>
